<svg id="683d3690-e1ab-45db-97b8-9484a1649262" data-name="Layer 1" xmlns="http://www.w3.org/2000/svg" xmlns:xlink="http://www.w3.org/1999/xlink" width="839.2" height="727.08" viewBox="0 0 839.2 727.08"><title>happy birthday</title><path d="M488.31,468c-3.94,12.79,2,27.91,13.53,34.64,4.84,2.82,10.41,4.24,15.1,7.3,10.19,6.64,14.21,19.35,17.52,31.05,3.8,13.45,7.61,27.67,4.13,41.2-2.22,8.63-7.27,16.26-10.14,24.7a51.54,51.54,0,0,0-2.45,22c.42,3.94,1.4,8,4.1,10.94,3.9,4.2,10.18,4.83,15.82,5.84a76.78,76.78,0,0,1,55.2,42.74" transform="translate(-180.4 -86.46)" fill="none" stroke="#535461" stroke-miterlimit="10" stroke-width="2"/><polygon points="324.76 390.14 298.28 390.14 302.92 374.26 318.8 374.26 324.76 390.14" fill="#f55f44"/><path d="M601.12,309.16c0,60.68-49.19,149.57-109.86,149.57s-109.86-88.9-109.86-149.57a109.86,109.86,0,0,1,219.73,0Z" transform="translate(-180.4 -86.46)" fill="#f55f44"/><polygon points="318.8 374.92 302.92 374.92 293.65 369.63 328.07 369.63 318.8 374.92" fill="#535461"/><path d="M451.55,223.78s-46.33,25.15-52.95,75.45" transform="translate(-180.4 -86.46)" fill="#fff" opacity="0.1"/></svg>