<svg id="683d3690-e1ab-45db-97b8-9484a1649262" data-name="Layer 1" xmlns="http://www.w3.org/2000/svg" xmlns:xlink="http://www.w3.org/1999/xlink" width="839.2" height="727.08" viewBox="0 0 839.2 727.08"><title>happy birthday</title><path d="M775,494.28l4.7,38.31c.62,5.09,1.15,10.64-1.58,15-2.59,4.11-7.45,6.07-11.23,9.11-12.41,10-11.28,29.11-7,44.45s10.44,31.82,4.49,46.58c-2.46,6.09-6.8,11.22-10,16.94a51.87,51.87,0,0,0-6.2,32.18" transform="translate(-180.4 -86.46)" fill="none" stroke="#535461" stroke-miterlimit="10" stroke-width="2"/><polygon points="610.89 416.71 584.41 416.71 589.05 400.82 604.93 400.82 610.89 416.71" fill="#3ad29f"/><path d="M887.25,335.72c0,60.68-49.19,149.57-109.86,149.57S667.52,396.4,667.52,335.72a109.86,109.86,0,1,1,219.73,0Z" transform="translate(-180.4 -86.46)" fill="#3ad29f"/><polygon points="604.93 401.48 589.05 401.48 579.78 396.19 614.2 396.19 604.93 401.48" fill="#535461"/><path d="M737.68,250.34s-46.33,25.15-52.95,75.45" transform="translate(-180.4 -86.46)" fill="#fff" opacity="0.1"/></svg>