<?xml version="1.0" encoding="utf-8"?>

<!DOCTYPE svg PUBLIC "-//W3C//DTD SVG 1.1//EN" "http://www.w3.org/Graphics/SVG/1.1/DTD/svg11.dtd">
<svg version="1.1" id="Layer_1" xmlns="http://www.w3.org/2000/svg" xmlns:xlink="http://www.w3.org/1999/xlink" x="0px" y="0px"
	 viewBox="0 0 2626 1728" enable-background="new 0 0 2626 1728" xml:space="preserve">
<g>
	<path fill="#FFFFFF" d="M1286.627,77.012c68.688-19.097-52.043-56.678,1288.012,510.226c6.163,2.61,13.356,4.869,16.865,11.141
		c3.794,12.325,0.833,30.835-14.211,33.84c-149.57,35.726-299.228,71.079-448.819,106.673
		c106.678,85.972,189.634,83.005,201.613,153.737c13.552,75.21-59.531,148.303-125.643,187.73
		c2.352,174.628-177.719,267.948-70.07,490.664c19.325,32.691-22.154,51.882-35.77,31.339
		c-38.609-63.423-47.352-121.757-50.683-129.328c-6.842,59.28-9.411,78.33-3.728,146.105c-0.57,21.69-36.121,27.633-44.498,8.049
		c-3.948-19.409-5.132-39.279-6.93-58.973c-6.507,74.514,7.368,71.024-35.835,86.189c-52.091,18.367-139.125-14.302-130.972-48.27
		c92.809-309.39,209.363-372.844,272.669-504.787c52.932-106.376,69.759-67.837,126.915-127.683
		c34.336-35.824,33.524-69.891,22.852-84.654c-4.879-4.034-130.299-53.292-198.696-131.148c-4.606,0.855-9.145,1.864-13.663,2.873
		c30.046,74.281,51.999,151.873,64.784,231c3.974,19.153-13.708,35.093-34.19,26.076c-451.43-196.691-582.3,17.681-927.794-64.872
		c-117.258-27.865-303.387-130.256-636.615-20.308c-21.539,5.909-31.893-14.868-28.554-30.111
		c14.825-93.339,48.204-183.695,97.593-264.291C395.502,562.544,219.724,486.86,44.057,410.978
		c-18.444-7.983-12.194-39.432,6.821-42.48C462.786,271.321,874.74,174.276,1286.627,77.012 M963.539,176.864
		C660.999,248.425,358.307,319.328,55.834,391.197C231.677,467.1,407.586,542.85,583.473,618.643
		c69.082-105.749,204.096-227.191,272.208-233.741c18.883-2.588,38.007-2.04,56.999-3.619
		c429.513-30.555,930.563,72.37,971.305,117.638c10.472,11.562,91.32,120.189,143.034,240.299
		c181.217-42.744,362.302-86.079,543.496-128.889c-410.879-173.804-821.582-348.002-1232.57-521.477
		C1213.048,117.672,1088.37,147.674,963.539,176.864 M839.913,410.737c-24.918,8.559-292.484,161.259-344.537,499.831
		c347.159-116.392,558.477,2.438,673.832,26.032c323.537,68,466.655-136.461,909.547,61.758
		c-38.061-244.179-169.78-439.777-220.736-490.62C1529.163,409.794,1181.248,376.59,839.913,410.737 M2075.005,751.568
		c132.395,129.636,253.734,97.59,196.832,198.016c-28.954,48.52-54.721,67.35-81.562,84.851c5.241,5.79,8.333,13.115,10.527,20.549
		c42.305-25.396,80.772-61.21,99.414-107.769c33.101-87.193-40.115-101.032-95.905-130.051
		c-37.261-19.036-72.043-43.073-102.528-71.737C2092.835,747.379,2083.997,749.813,2075.005,751.568 M2098.625,1156.108
		c-6.533,14.143-165.078,168.587-250.343,455.136c31.348,27.778,76.143,35.965,119.305,14.781
		c-2.368-113.011,31.076-226,92.22-320.852c-41.625,98.032-56.209,207.797-38.555,312.957
		c-10.988-95.861,4.386-194.901,45.836-282.165c-14.183,92.457,5.816,175.681,49.696,253.172
		c-22.22-70.368-100.929-135.933,52.985-416.34c3.185-16.983,15.813-100.078,1.821-126.148
		C2148.441,1039.995,2109.648,1131.071,2098.625,1156.108z"/>
	<path d="M1337.946,88.855c410.988,173.475,821.691,347.673,1232.57,521.477c-181.194,42.81-362.279,86.145-543.496,128.889
		c-27.808-64.587-62.416-126.213-102.9-183.673c-29.55-42.061-35.809-62.34-67.921-74.653
		c-12.371-4.84-440.569-135.39-943.518-99.611c-69.92,5.813-70.51-4.978-143.429,44.323
		c-72.131,53.292-136.609,117.77-185.778,193.037C407.586,542.85,231.677,467.1,55.834,391.197
		C246.421,345.913,1257.172,107.492,1337.946,88.855z"/>
	<path d="M1858.019,507.738c11.512,11.487,175.395,199.731,220.736,490.62c-441.976-197.809-586.793,6.077-909.547-61.758
		c-115.254-23.574-326.816-142.376-673.832-26.032c31.843-207.121,151.825-385.43,330.523-492.155
		C860.468,399.081,1339.532,353.316,1858.019,507.738z"/>
	<path d="M2075.005,751.568c8.992-1.755,17.83-4.189,26.778-6.141c120.564,113.365,241.693,87.834,198.433,201.788
		c-18.641,46.56-57.109,82.373-99.414,107.769c-2.193-7.435-5.285-14.76-10.527-20.549c26.621-17.358,52.475-36.108,81.562-84.851
		c48.147-84.974-32.167-76.59-135.644-147.311C2114.042,787.622,2093.953,770.121,2075.005,751.568z"/>
	<path d="M2171.59,1046.65c13.861,25.826,1.466,108.621-1.821,126.148c-150.813,274.757-78.427,335.77-52.985,416.34
		c-43.791-77.334-63.904-160.555-49.696-253.172c-41.45,87.264-56.823,186.304-45.836,282.165
		c-17.654-105.16-3.07-214.924,38.555-312.957c-61.144,94.852-94.589,207.841-92.22,320.852
		c-43.078,21.142-87.887,13.059-119.305-14.781c85.759-288.206,242.896-439.014,250.343-455.136
		C2111.027,1127.938,2149.01,1040.159,2171.59,1046.65z"/>
</g>
</svg>
