<?xml version="1.0" encoding="UTF-8" standalone="no"?>
<!-- Created with Inkscape (http://www.inkscape.org/) -->

<svg
   xmlns:dc="http://purl.org/dc/elements/1.1/"
   xmlns:cc="http://creativecommons.org/ns#"
   xmlns:rdf="http://www.w3.org/1999/02/22-rdf-syntax-ns#"
   xmlns:svg="http://www.w3.org/2000/svg"
   xmlns="http://www.w3.org/2000/svg"
   xmlns:sodipodi="http://sodipodi.sourceforge.net/DTD/sodipodi-0.dtd"
   xmlns:inkscape="http://www.inkscape.org/namespaces/inkscape"
   viewBox="0 0 582 930"
   id="svg2"
   version="1.1"
   inkscape:version="0.48.4 r9939"
   sodipodi:docname="New document 1">
  <defs
     id="defs4" />
  <sodipodi:namedview
     id="base"
     pagecolor="#ffffff"
     bordercolor="#666666"
     borderopacity="1.0"
     inkscape:pageopacity="0.0"
     inkscape:pageshadow="2"
     inkscape:zoom="0.49497475"
     inkscape:cx="6.3969031"
     inkscape:cy="484.35652"
     inkscape:document-units="px"
     inkscape:current-layer="layer1"
     showgrid="false"
     fit-margin-top="0"
     fit-margin-left="0"
     fit-margin-right="0"
     fit-margin-bottom="0"
     inkscape:window-width="1166"
     inkscape:window-height="1181"
     inkscape:window-x="0"
     inkscape:window-y="0"
     inkscape:window-maximized="0" />
  <metadata
     id="metadata7">
    <rdf:RDF>
      <cc:Work
         rdf:about="">
        <dc:format>image/svg+xml</dc:format>
        <dc:type
           rdf:resource="http://purl.org/dc/dcmitype/StillImage" />
        <dc:title></dc:title>
      </cc:Work>
    </rdf:RDF>
  </metadata>
  <g
     inkscape:label="Layer 1"
     inkscape:groupmode="layer"
     id="layer1"
     transform="translate(-62.857143,-38.169022)">
    <path
       style="fill:#ff6a9d;fill-opacity:1;fill-rule:nonzero;stroke:none"
       d="M 62.857143,886.6479 351.42857,109.50504 645.71429,883.79075 C 451.42857,984.23468 257.14286,1006.7143 62.857143,886.6479 z"
       id="path2985"
       inkscape:connector-curvature="0"
       sodipodi:nodetypes="cccc" />
    <path
       sodipodi:type="star"
       style="fill:#fffcc2;fill-opacity:1;fill-rule:nonzero;stroke:none"
       id="path3755"
       sodipodi:sides="5"
       sodipodi:cx="345.71429"
       sodipodi:cy="523.79077"
       sodipodi:r1="84.852814"
       sodipodi:r2="33.941124"
       sodipodi:arg1="0.78539816"
       sodipodi:arg2="1.4137167"
       inkscape:flatsided="false"
       inkscape:rounded="0.05"
       inkscape:randomized="0"
       d="m 405.71429,583.79077 c -2.14827,2.14827 -51.68972,-26.95201 -54.69043,-26.47675 -3.00072,0.47527 -41.12495,43.46044 -43.83194,42.08116 -2.70698,-1.37927 9.65989,-57.48848 8.28061,-60.19546 -1.37927,-2.70698 -54.04164,-25.68214 -53.56637,-28.68285 0.47527,-3.00072 57.65986,-8.57782 59.80814,-10.7261 2.14827,-2.14827 7.72538,-59.33287 10.72609,-59.80813 3.00071,-0.47527 25.97587,52.18709 28.68285,53.56637 2.70698,1.37927 58.81619,-10.98759 60.19546,-8.28061 1.37928,2.70698 -41.60589,40.83122 -42.08115,43.83193 -0.47527,3.00072 28.62502,52.54217 26.47674,54.69044 z"
       inkscape:transform-center-x="3.8973855"
       inkscape:transform-center-y="-3.8973855"
       transform="translate(20.203051,-80.812204)" />
    <path
       transform="matrix(0.55753184,0.20080213,-0.20080213,0.55753184,120.64301,390.58917)"
       inkscape:transform-center-y="-1.7947173"
       inkscape:transform-center-x="-2.9706611"
       d="m 405.71429,583.79077 c -2.14827,2.14827 -51.68972,-26.95201 -54.69043,-26.47675 -3.00072,0.47527 -41.12495,43.46044 -43.83194,42.08116 -2.70698,-1.37927 9.65989,-57.48848 8.28061,-60.19546 -1.37927,-2.70698 -54.04164,-25.68214 -53.56637,-28.68285 0.47527,-3.00072 57.65986,-8.57782 59.80814,-10.7261 2.14827,-2.14827 7.72538,-59.33287 10.72609,-59.80813 3.00071,-0.47527 25.97587,52.18709 28.68285,53.56637 2.70698,1.37927 58.81619,-10.98759 60.19546,-8.28061 1.37928,2.70698 -41.60589,40.83122 -42.08115,43.83193 -0.47527,3.00072 28.62502,52.54217 26.47674,54.69044 z"
       inkscape:randomized="0"
       inkscape:rounded="0.05"
       inkscape:flatsided="false"
       sodipodi:arg2="1.4137167"
       sodipodi:arg1="0.78539816"
       sodipodi:r2="33.941124"
       sodipodi:r1="84.852814"
       sodipodi:cy="523.79077"
       sodipodi:cx="345.71429"
       sodipodi:sides="5"
       id="path3757"
       style="fill:#c2f0ff;fill-opacity:1;fill-rule:nonzero;stroke:none"
       sodipodi:type="star" />
    <path
       sodipodi:type="star"
       style="fill:#fffcc2;fill-opacity:1;fill-rule:nonzero;stroke:none"
       id="path3759"
       sodipodi:sides="5"
       sodipodi:cx="345.71429"
       sodipodi:cy="523.79077"
       sodipodi:r1="84.852814"
       sodipodi:r2="33.941124"
       sodipodi:arg1="0.78539816"
       sodipodi:arg2="1.4137167"
       inkscape:flatsided="false"
       inkscape:rounded="0.05"
       inkscape:randomized="0"
       d="m 405.71429,583.79077 c -2.14827,2.14827 -51.68972,-26.95201 -54.69043,-26.47675 -3.00072,0.47527 -41.12495,43.46044 -43.83194,42.08116 -2.70698,-1.37927 9.65989,-57.48848 8.28061,-60.19546 -1.37927,-2.70698 -54.04164,-25.68214 -53.56637,-28.68285 0.47527,-3.00072 57.65986,-8.57782 59.80814,-10.7261 2.14827,-2.14827 7.72538,-59.33287 10.72609,-59.80813 3.00071,-0.47527 25.97587,52.18709 28.68285,53.56637 2.70698,1.37927 58.81619,-10.98759 60.19546,-8.28061 1.37928,2.70698 -41.60589,40.83122 -42.08115,43.83193 -0.47527,3.00072 28.62502,52.54217 26.47674,54.69044 z"
       inkscape:transform-center-x="3.7253876"
       inkscape:transform-center-y="4.1509962"
       transform="matrix(0.54931149,0.74890614,-0.74890614,0.54931149,568.0549,215.61156)" />
    <path
       transform="matrix(0.38114762,-0.07178754,0.07178754,0.38114762,79.265967,439.74977)"
       inkscape:transform-center-y="0.3534456"
       inkscape:transform-center-x="2.7631011"
       d="m 405.71429,583.79077 c -2.14827,2.14827 -51.68972,-26.95201 -54.69043,-26.47675 -3.00072,0.47527 -41.12495,43.46044 -43.83194,42.08116 -2.70698,-1.37927 9.65989,-57.48848 8.28061,-60.19546 -1.37927,-2.70698 -54.04164,-25.68214 -53.56637,-28.68285 0.47527,-3.00072 57.65986,-8.57782 59.80814,-10.7261 2.14827,-2.14827 7.72538,-59.33287 10.72609,-59.80813 3.00071,-0.47527 25.97587,52.18709 28.68285,53.56637 2.70698,1.37927 58.81619,-10.98759 60.19546,-8.28061 1.37928,2.70698 -41.60589,40.83122 -42.08115,43.83193 -0.47527,3.00072 28.62502,52.54217 26.47674,54.69044 z"
       inkscape:randomized="0"
       inkscape:rounded="0.05"
       inkscape:flatsided="false"
       sodipodi:arg2="1.4137167"
       sodipodi:arg1="0.78539816"
       sodipodi:r2="33.941124"
       sodipodi:r1="84.852814"
       sodipodi:cy="523.79077"
       sodipodi:cx="345.71429"
       sodipodi:sides="5"
       id="path3761"
       style="fill:#c7ffc2;fill-opacity:1;fill-rule:nonzero;stroke:none"
       sodipodi:type="star" />
    <path
       sodipodi:type="star"
       style="fill:#c2fdff;fill-opacity:1;fill-rule:nonzero;stroke:none"
       id="path3763"
       sodipodi:sides="5"
       sodipodi:cx="345.71429"
       sodipodi:cy="523.79077"
       sodipodi:r1="84.852814"
       sodipodi:r2="33.941124"
       sodipodi:arg1="0.78539816"
       sodipodi:arg2="1.4137167"
       inkscape:flatsided="false"
       inkscape:rounded="0.05"
       inkscape:randomized="0"
       d="m 405.71429,583.79077 c -2.14827,2.14827 -51.68972,-26.95201 -54.69043,-26.47675 -3.00072,0.47527 -41.12495,43.46044 -43.83194,42.08116 -2.70698,-1.37927 9.65989,-57.48848 8.28061,-60.19546 -1.37927,-2.70698 -54.04164,-25.68214 -53.56637,-28.68285 0.47527,-3.00072 57.65986,-8.57782 59.80814,-10.7261 2.14827,-2.14827 7.72538,-59.33287 10.72609,-59.80813 3.00071,-0.47527 25.97587,52.18709 28.68285,53.56637 2.70698,1.37927 58.81619,-10.98759 60.19546,-8.28061 1.37928,2.70698 -41.60589,40.83122 -42.08115,43.83193 -0.47527,3.00072 28.62502,52.54217 26.47674,54.69044 z"
       inkscape:transform-center-x="-3.9733928"
       inkscape:transform-center-y="-1.018807"
       transform="matrix(0.39084475,-0.44542522,0.44542522,0.39084475,110.59312,592.05758)" />
    <path
       transform="matrix(0.46961691,-0.36141833,0.36141833,0.46961691,147.56455,733.918)"
       inkscape:transform-center-y="2.0195524"
       inkscape:transform-center-x="-3.000937"
       d="m 405.71429,583.79077 c -2.14827,2.14827 -51.68972,-26.95201 -54.69043,-26.47675 -3.00072,0.47527 -41.12495,43.46044 -43.83194,42.08116 -2.70698,-1.37927 9.65989,-57.48848 8.28061,-60.19546 -1.37927,-2.70698 -54.04164,-25.68214 -53.56637,-28.68285 0.47527,-3.00072 57.65986,-8.57782 59.80814,-10.7261 2.14827,-2.14827 7.72538,-59.33287 10.72609,-59.80813 3.00071,-0.47527 25.97587,52.18709 28.68285,53.56637 2.70698,1.37927 58.81619,-10.98759 60.19546,-8.28061 1.37928,2.70698 -41.60589,40.83122 -42.08115,43.83193 -0.47527,3.00072 28.62502,52.54217 26.47674,54.69044 z"
       inkscape:randomized="0"
       inkscape:rounded="0.05"
       inkscape:flatsided="false"
       sodipodi:arg2="1.4137167"
       sodipodi:arg1="0.78539816"
       sodipodi:r2="33.941124"
       sodipodi:r1="84.852814"
       sodipodi:cy="523.79077"
       sodipodi:cx="345.71429"
       sodipodi:sides="5"
       id="path3765"
       style="fill:#c2f0ff;fill-opacity:1;fill-rule:nonzero;stroke:none"
       sodipodi:type="star" />
    <path
       sodipodi:type="star"
       style="fill:#c7ffc2;fill-opacity:1;fill-rule:nonzero;stroke:none"
       id="path3769"
       sodipodi:sides="5"
       sodipodi:cx="345.71429"
       sodipodi:cy="523.79077"
       sodipodi:r1="84.852814"
       sodipodi:r2="33.941124"
       sodipodi:arg1="0.78539816"
       sodipodi:arg2="1.4137167"
       inkscape:flatsided="false"
       inkscape:rounded="0.05"
       inkscape:randomized="0"
       d="m 405.71429,583.79077 c -2.14827,2.14827 -51.68972,-26.95201 -54.69043,-26.47675 -3.00072,0.47527 -41.12495,43.46044 -43.83194,42.08116 -2.70698,-1.37927 9.65989,-57.48848 8.28061,-60.19546 -1.37927,-2.70698 -54.04164,-25.68214 -53.56637,-28.68285 0.47527,-3.00072 57.65986,-8.57782 59.80814,-10.7261 2.14827,-2.14827 7.72538,-59.33287 10.72609,-59.80813 3.00071,-0.47527 25.97587,52.18709 28.68285,53.56637 2.70698,1.37927 58.81619,-10.98759 60.19546,-8.28061 1.37928,2.70698 -41.60589,40.83122 -42.08115,43.83193 -0.47527,3.00072 28.62502,52.54217 26.47674,54.69044 z"
       inkscape:transform-center-x="0.11132289"
       inkscape:transform-center-y="3.1296143"
       transform="matrix(0.27125275,0.27721635,-0.27721635,0.27125275,293.91518,645.40203)" />
    <path
       transform="matrix(0.12820697,0.36604635,-0.36604635,0.12820697,658.55305,552.22724)"
       inkscape:transform-center-y="-1.2634893"
       inkscape:transform-center-x="1.8574445"
       d="m 405.71429,583.79077 c -2.14827,2.14827 -51.68972,-26.95201 -54.69043,-26.47675 -3.00072,0.47527 -41.12495,43.46044 -43.83194,42.08116 -2.70698,-1.37927 9.65989,-57.48848 8.28061,-60.19546 -1.37927,-2.70698 -54.04164,-25.68214 -53.56637,-28.68285 0.47527,-3.00072 57.65986,-8.57782 59.80814,-10.7261 2.14827,-2.14827 7.72538,-59.33287 10.72609,-59.80813 3.00071,-0.47527 25.97587,52.18709 28.68285,53.56637 2.70698,1.37927 58.81619,-10.98759 60.19546,-8.28061 1.37928,2.70698 -41.60589,40.83122 -42.08115,43.83193 -0.47527,3.00072 28.62502,52.54217 26.47674,54.69044 z"
       inkscape:randomized="0"
       inkscape:rounded="0.05"
       inkscape:flatsided="false"
       sodipodi:arg2="1.4137167"
       sodipodi:arg1="0.78539816"
       sodipodi:r2="33.941124"
       sodipodi:r1="84.852814"
       sodipodi:cy="523.79077"
       sodipodi:cx="345.71429"
       sodipodi:sides="5"
       id="path3771"
       style="fill:#c7ffc2;fill-opacity:1;fill-rule:nonzero;stroke:none"
       sodipodi:type="star" />
    <path
       sodipodi:type="star"
       style="fill:#c7ffc2;fill-opacity:1;fill-rule:nonzero;stroke:none"
       id="path3773"
       sodipodi:sides="5"
       sodipodi:cx="345.71429"
       sodipodi:cy="523.79077"
       sodipodi:r1="84.852814"
       sodipodi:r2="33.941124"
       sodipodi:arg1="0.78539816"
       sodipodi:arg2="1.4137167"
       inkscape:flatsided="false"
       inkscape:rounded="0.05"
       inkscape:randomized="0"
       d="m 405.71429,583.79077 c -2.14827,2.14827 -51.68972,-26.95201 -54.69043,-26.47675 -3.00072,0.47527 -41.12495,43.46044 -43.83194,42.08116 -2.70698,-1.37927 9.65989,-57.48848 8.28061,-60.19546 -1.37927,-2.70698 -54.04164,-25.68214 -53.56637,-28.68285 0.47527,-3.00072 57.65986,-8.57782 59.80814,-10.7261 2.14827,-2.14827 7.72538,-59.33287 10.72609,-59.80813 3.00071,-0.47527 25.97587,52.18709 28.68285,53.56637 2.70698,1.37927 58.81619,-10.98759 60.19546,-8.28061 1.37928,2.70698 -41.60589,40.83122 -42.08115,43.83193 -0.47527,3.00072 28.62502,52.54217 26.47674,54.69044 z"
       inkscape:transform-center-x="1.8574445"
       inkscape:transform-center-y="-1.2634893"
       transform="matrix(0.12820697,0.36604635,-0.36604635,0.12820697,521.17231,384.54193)" />
    <path
       sodipodi:type="arc"
       style="fill:#93ffac;fill-opacity:1;fill-rule:nonzero;stroke:none"
       id="path3777"
       sodipodi:cx="351.53308"
       sodipodi:cy="137.16397"
       sodipodi:rx="127.27922"
       sodipodi:ry="127.27922"
       d="m 478.8123,137.16397 c 0,70.29437 -56.98485,127.27922 -127.27922,127.27922 -70.29437,0 -127.27922,-56.98485 -127.27922,-127.27922 0,-70.294372 56.98485,-127.2792196 127.27922,-127.2792196 70.29437,0 127.27922,56.9848476 127.27922,127.2792196 z"
       transform="translate(-6.0609153,28.284272)" />
  </g>
</svg>
